<svg width="40" height="39" viewBox="0 0 40 39" fill="none" xmlns="http://www.w3.org/2000/svg">
<path fill-rule="evenodd" clip-rule="evenodd" d="M26.2235 13.3005C26.5136 13.0129 26.9052 12.851 27.3137 12.8499C27.7221 12.8488 28.1146 13.0085 28.4063 13.2944C28.698 13.5804 28.8654 13.9697 28.8724 14.3781C28.8793 14.7865 28.7253 15.1812 28.4435 15.477L20.1686 25.8206C20.0264 25.9737 19.8548 26.0967 19.664 26.182C19.4731 26.2673 19.2671 26.3133 19.0581 26.3172C18.8491 26.321 18.6415 26.2827 18.4476 26.2045C18.2538 26.1263 18.0777 26.0098 17.9299 25.862L12.4472 20.3772C12.2945 20.2349 12.1719 20.0633 12.087 19.8726C12.002 19.6818 11.9563 19.476 11.9526 19.2672C11.949 19.0585 11.9874 18.8512 12.0655 18.6576C12.1437 18.464 12.2601 18.2881 12.4077 18.1405C12.5554 17.9929 12.7312 17.8765 12.9248 17.7983C13.1184 17.7201 13.3257 17.6817 13.5345 17.6854C13.7432 17.6891 13.9491 17.7348 14.1398 17.8198C14.3305 17.9047 14.5021 18.0272 14.6444 18.18L18.985 22.5185L26.1841 13.3461C26.1969 13.33 26.2108 13.3148 26.2255 13.3005H26.2235Z" fill="#E75500"/>
<circle cx="20" cy="19.5808" r="18.0029" stroke="#E75500" stroke-width="2"/>
</svg>
