<svg width="26" height="23" viewBox="0 0 26 23" fill="none" xmlns="http://www.w3.org/2000/svg">
<g opacity="0.2">
<path fill-rule="evenodd" clip-rule="evenodd" d="M13.3404 1.22818C13.4826 1.08558 13.6516 0.972444 13.8376 0.895249C14.0236 0.818054 14.2231 0.77832 14.4245 0.77832C14.6259 0.77832 14.8253 0.818054 15.0114 0.895249C15.1974 0.972444 15.3664 1.08558 15.5086 1.22818L24.6961 10.4157C24.8387 10.5579 24.9519 10.7269 25.029 10.9129C25.1062 11.099 25.146 11.2984 25.146 11.4998C25.146 11.7012 25.1062 11.9007 25.029 12.0867C24.9519 12.2727 24.8387 12.4417 24.6961 12.5839L15.5086 21.7714C15.2211 22.059 14.8311 22.2205 14.4245 22.2205C14.0179 22.2205 13.6279 22.059 13.3404 21.7714C13.0528 21.4839 12.8913 21.0939 12.8913 20.6873C12.8913 20.2807 13.0528 19.8907 13.3404 19.6032L21.4468 11.4998L13.3404 3.39643C13.1978 3.25419 13.0846 3.08522 13.0074 2.89918C12.9302 2.71315 12.8905 2.51372 12.8905 2.31231C12.8905 2.11089 12.9302 1.91146 13.0074 1.72543C13.0846 1.5394 13.1978 1.37042 13.3404 1.22818Z" fill="black"/>
<path fill-rule="evenodd" clip-rule="evenodd" d="M0.643188 11.5C0.643188 11.0939 0.804516 10.7044 1.09168 10.4172C1.37885 10.1301 1.76833 9.96875 2.17444 9.96875H22.0807C22.4868 9.96875 22.8763 10.1301 23.1634 10.4172C23.4506 10.7044 23.6119 11.0939 23.6119 11.5C23.6119 11.9061 23.4506 12.2956 23.1634 12.5828C22.8763 12.8699 22.4868 13.0312 22.0807 13.0312H2.17444C1.76833 13.0312 1.37885 12.8699 1.09168 12.5828C0.804516 12.2956 0.643188 11.9061 0.643188 11.5Z" fill="black"/>
</g>
</svg>
