<svg width="34" height="41" viewBox="0 0 34 41" fill="none" xmlns="http://www.w3.org/2000/svg">
<path fill-rule="evenodd" clip-rule="evenodd" d="M16.8724 38.4233C9.34062 36.3301 3.50741 29.0056 2.68455 20.7666H16.8725V38.4233C16.8725 38.4233 16.8725 38.4233 16.8724 38.4233ZM16.8727 40.4905C26.2108 38.192 33.1599 28.8178 33.1599 18.7739V7.91558L16.8725 0.676697L0.584961 7.91558V18.7739C0.584961 28.8179 7.53429 38.1922 16.8725 40.4906C16.8725 40.4906 16.8725 40.4906 16.8725 40.4905V40.4906L16.8727 40.4905ZM31.0604 20.7666H16.981V2.91359L31.1599 9.21533V18.7739C31.1599 19.4425 31.1262 20.1075 31.0604 20.7666Z" fill="#E75500"/>
</svg>
