<svg width="24" height="19" viewBox="0 0 24 19" fill="none" xmlns="http://www.w3.org/2000/svg">
<path fill-rule="evenodd" clip-rule="evenodd" d="M19.891 1.21586C20.2849 0.825322 20.8168 0.605531 21.3715 0.604001C21.9262 0.60247 22.4593 0.819323 22.8554 1.20768C23.2515 1.59603 23.4789 2.12469 23.4883 2.67934C23.4978 3.234 23.2886 3.77009 22.9059 4.17172L11.668 18.2191C11.4749 18.4271 11.2418 18.5941 10.9826 18.71C10.7235 18.8258 10.4437 18.8883 10.1598 18.8935C9.87602 18.8988 9.59405 18.8468 9.3308 18.7405C9.06755 18.6343 8.82842 18.4761 8.62771 18.2754L1.18176 10.8266C0.974319 10.6333 0.80794 10.4002 0.692543 10.1413C0.577147 9.88227 0.515096 9.60269 0.510094 9.3192C0.505092 9.03572 0.557242 8.75412 0.663431 8.49122C0.769619 8.22833 0.927672 7.98951 1.12816 7.78902C1.32865 7.58853 1.56746 7.43048 1.83036 7.32429C2.09326 7.2181 2.37485 7.16595 2.65834 7.17096C2.94183 7.17596 3.22141 7.23801 3.4804 7.35341C3.73939 7.4688 3.97248 7.63518 4.16577 7.84262L10.0606 13.7346L19.8375 1.27779C19.8549 1.25598 19.8737 1.2353 19.8938 1.21586H19.891Z" fill="white"/>
</svg>
