<svg width="15" height="16" viewBox="0 0 15 16" fill="none" xmlns="http://www.w3.org/2000/svg">
<path d="M14.5235 14.6433L10.59 10.6798C11.5187 9.5714 11.983 8.29321 11.983 6.84527C11.983 5.75681 11.7159 4.75323 11.1817 3.83453C10.6474 2.91584 9.91844 2.18937 8.99475 1.65512C8.07106 1.12088 7.06748 0.85376 5.98402 0.85376C4.90055 0.85376 3.89947 1.12088 2.98077 1.65512C2.06208 2.18937 1.33561 2.91584 0.801364 3.83453C0.267121 4.75323 0 5.75681 0 6.84527C0 7.93372 0.267121 8.9373 0.801364 9.856C1.33561 10.7747 2.06208 11.5012 2.98077 12.0354C3.89947 12.5697 4.90305 12.8368 5.99151 12.8368C7.4794 12.8368 8.78754 12.3475 9.91595 11.3689L13.8345 15.3173C13.9343 15.4172 14.0492 15.4671 14.179 15.4671C14.3088 15.4671 14.4211 15.4197 14.516 15.3248C14.6109 15.2299 14.6583 15.1151 14.6583 14.9803C14.6583 14.8455 14.6134 14.7331 14.5235 14.6433ZM5.99151 11.8931C5.07281 11.8931 4.22651 11.6659 3.45261 11.2116C2.6787 10.7572 2.06707 10.1431 1.61771 9.36919C1.16834 8.59529 0.943662 7.75398 0.943662 6.84527C0.943662 5.93656 1.16834 5.09525 1.61771 4.32134C2.06707 3.54744 2.6787 2.93331 3.45261 2.47896C4.22651 2.0246 5.07031 1.79742 5.98402 1.79742C6.89772 1.79742 7.74153 2.0246 8.51543 2.47896C9.28933 2.93331 9.90097 3.54744 10.3503 4.32134C10.7997 5.09525 11.0244 5.93656 11.0244 6.84527C11.0244 7.23472 10.9794 7.61917 10.8896 7.99863C10.7997 8.37809 10.6724 8.73259 10.5076 9.06213C10.3428 9.39166 10.1456 9.70372 9.91595 9.9983C9.68627 10.2929 9.42664 10.555 9.13705 10.7847C8.84746 11.0144 8.5379 11.2116 8.20837 11.3763C7.87883 11.5411 7.52433 11.6684 7.14487 11.7583C6.76541 11.8482 6.38096 11.8931 5.99151 11.8931Z" fill="black"/>
</svg>
