<svg width="18" height="14" viewBox="0 0 18 14" fill="none" xmlns="http://www.w3.org/2000/svg">
<path fill-rule="evenodd" clip-rule="evenodd" d="M14.5823 0.461397C14.8724 0.173836 15.264 0.0119971 15.6725 0.0108702C16.0809 0.00974322 16.4734 0.169418 16.7651 0.455375C17.0568 0.741332 17.2242 1.13059 17.2312 1.539C17.2381 1.94741 17.0841 2.34215 16.8023 2.63788L8.52754 12.9814C8.38532 13.1345 8.21368 13.2575 8.02287 13.3428C7.83206 13.4281 7.626 13.4741 7.41702 13.478C7.20803 13.4818 7.00042 13.4435 6.80658 13.3653C6.61274 13.2871 6.43666 13.1706 6.28887 13.0228L0.806206 7.53808C0.653465 7.39575 0.530956 7.22412 0.445986 7.03342C0.361016 6.84272 0.315326 6.63686 0.311643 6.42812C0.30796 6.21938 0.346359 6.01203 0.424549 5.81845C0.502739 5.62487 0.619118 5.44903 0.766743 5.3014C0.914368 5.15378 1.09021 5.0374 1.28379 4.95921C1.47737 4.88102 1.68472 4.84262 1.89346 4.8463C2.1022 4.84999 2.30806 4.89568 2.49876 4.98065C2.68946 5.06562 2.86109 5.18812 3.00342 5.34087L7.34395 9.67932L14.5429 0.507C14.5558 0.490943 14.5696 0.475712 14.5844 0.461397H14.5823Z" fill="white"/>
</svg>
