<svg width="25" height="25" viewBox="0 0 25 25" fill="none" xmlns="http://www.w3.org/2000/svg">
<path d="M22.5808 11.1775H13.5808V2.17749C13.5808 1.77967 13.4228 1.39813 13.1415 1.11683C12.8602 0.835526 12.4786 0.67749 12.0808 0.67749C11.683 0.67749 11.3015 0.835526 11.0202 1.11683C10.7388 1.39813 10.5808 1.77967 10.5808 2.17749V11.1775H1.58081C1.18299 11.1775 0.801455 11.3355 0.520151 11.6168C0.238846 11.8981 0.0808105 12.2797 0.0808105 12.6775C0.0808105 13.0753 0.238846 13.4568 0.520151 13.7381C0.801455 14.0195 1.18299 14.1775 1.58081 14.1775H10.5808V23.1775C10.5808 23.5753 10.7388 23.9568 11.0202 24.2382C11.3015 24.5195 11.683 24.6775 12.0808 24.6775C12.4786 24.6775 12.8602 24.5195 13.1415 24.2382C13.4228 23.9568 13.5808 23.5753 13.5808 23.1775V14.1775H22.5808C22.9786 14.1775 23.3602 14.0195 23.6415 13.7381C23.9228 13.4568 24.0808 13.0753 24.0808 12.6775C24.0808 12.2797 23.9228 11.8981 23.6415 11.6168C23.3602 11.3355 22.9786 11.1775 22.5808 11.1775Z" fill="white"/>
</svg>
