<svg width="19" height="19" viewBox="0 0 19 19" fill="none" xmlns="http://www.w3.org/2000/svg">
<path d="M17.7031 16.121L11.3391 9.75706L17.7031 3.3931C17.9844 3.1118 18.1424 2.73027 18.1424 2.33244C18.1424 1.93462 17.9844 1.55308 17.7031 1.27178C17.4218 0.990476 17.0402 0.832441 16.6424 0.832441C16.2446 0.832441 15.863 0.990476 15.5817 1.27178L9.21777 7.63574L2.85381 1.27178C2.57251 0.990476 2.19098 0.832441 1.79315 0.832441C1.39533 0.832441 1.0138 0.990476 0.732492 1.27178C0.451188 1.55308 0.293153 1.93462 0.293153 2.33244C0.293153 2.73027 0.451188 3.1118 0.732492 3.3931L7.09645 9.75706L0.732492 16.121C0.451187 16.4023 0.293152 16.7839 0.293152 17.1817C0.293151 17.5795 0.451188 17.961 0.732492 18.2423C1.0138 18.5236 1.39533 18.6817 1.79315 18.6817C2.19098 18.6817 2.57251 18.5236 2.85381 18.2423L9.21777 11.8784L15.5817 18.2423C15.863 18.5236 16.2446 18.6817 16.6424 18.6817C17.0402 18.6817 17.4218 18.5236 17.7031 18.2423C17.9844 17.961 18.1424 17.5795 18.1424 17.1817C18.1424 16.7839 17.9844 16.4023 17.7031 16.121Z" fill="black"/>
</svg>
