<svg width="116" height="29" viewBox="0 0 116 29" fill="none" xmlns="http://www.w3.org/2000/svg">
<path d="M41.0567 9.17335C42.0274 9.17335 42.8701 9.33335 43.5847 9.65335C44.3101 9.97335 44.8647 10.432 45.2487 11.0294C45.6327 11.6267 45.8247 12.336 45.8247 13.1574C45.8247 13.968 45.6327 14.6774 45.2487 15.2854C44.8647 15.8827 44.3101 16.3414 43.5847 16.6614C42.8701 16.9814 42.0274 17.1414 41.0567 17.1414H38.5287V20.3734H36.4487V9.17335H41.0567ZM40.9607 15.3814C41.8674 15.3814 42.5554 15.1894 43.0247 14.8054C43.4941 14.4214 43.7287 13.872 43.7287 13.1574C43.7287 12.4427 43.4941 11.8934 43.0247 11.5094C42.5554 11.1254 41.8674 10.9334 40.9607 10.9334H38.5287V15.3814H40.9607ZM55.5372 16.1494C55.5372 16.288 55.5266 16.4854 55.5052 16.7414H48.8012C48.9186 17.3707 49.2226 17.872 49.7132 18.2454C50.2146 18.608 50.8332 18.7894 51.5692 18.7894C52.5079 18.7894 53.2812 18.48 53.8892 17.8614L54.9612 19.0934C54.5772 19.552 54.0919 19.8987 53.5052 20.1334C52.9186 20.368 52.2572 20.4854 51.5212 20.4854C50.5826 20.4854 49.7559 20.2987 49.0412 19.9254C48.3266 19.552 47.7719 19.0347 47.3772 18.3734C46.9932 17.7014 46.8012 16.944 46.8012 16.1014C46.8012 15.2694 46.9879 14.5227 47.3612 13.8614C47.7452 13.1894 48.2732 12.6667 48.9452 12.2934C49.6172 11.92 50.3746 11.7334 51.2172 11.7334C52.0492 11.7334 52.7906 11.92 53.4412 12.2934C54.1026 12.656 54.6146 13.1734 54.9772 13.8454C55.3506 14.5067 55.5372 15.2747 55.5372 16.1494ZM51.2172 13.3334C50.5772 13.3334 50.0332 13.5254 49.5852 13.9094C49.1479 14.2827 48.8812 14.784 48.7852 15.4134H53.6332C53.5479 14.7947 53.2866 14.2934 52.8492 13.9094C52.4119 13.5254 51.8679 13.3334 51.2172 13.3334ZM65.7247 16.1494C65.7247 16.288 65.7141 16.4854 65.6927 16.7414H58.9887C59.1061 17.3707 59.4101 17.872 59.9007 18.2454C60.4021 18.608 61.0207 18.7894 61.7567 18.7894C62.6954 18.7894 63.4687 18.48 64.0767 17.8614L65.1487 19.0934C64.7647 19.552 64.2794 19.8987 63.6927 20.1334C63.1061 20.368 62.4447 20.4854 61.7087 20.4854C60.7701 20.4854 59.9434 20.2987 59.2287 19.9254C58.5141 19.552 57.9594 19.0347 57.5647 18.3734C57.1807 17.7014 56.9887 16.944 56.9887 16.1014C56.9887 15.2694 57.1754 14.5227 57.5487 13.8614C57.9327 13.1894 58.4607 12.6667 59.1327 12.2934C59.8047 11.92 60.5621 11.7334 61.4047 11.7334C62.2367 11.7334 62.9781 11.92 63.6287 12.2934C64.2901 12.656 64.8021 13.1734 65.1647 13.8454C65.5381 14.5067 65.7247 15.2747 65.7247 16.1494ZM61.4047 13.3334C60.7647 13.3334 60.2207 13.5254 59.7727 13.9094C59.3354 14.2827 59.0687 14.784 58.9727 15.4134H63.8207C63.7354 14.7947 63.4741 14.2934 63.0367 13.9094C62.5994 13.5254 62.0554 13.3334 61.4047 13.3334ZM71.8002 20.4854C70.9149 20.4854 70.1202 20.2987 69.4162 19.9254C68.7122 19.552 68.1629 19.0347 67.7682 18.3734C67.3736 17.7014 67.1762 16.944 67.1762 16.1014C67.1762 15.2587 67.3736 14.5067 67.7682 13.8454C68.1629 13.184 68.7069 12.6667 69.4002 12.2934C70.1042 11.92 70.9042 11.7334 71.8002 11.7334C72.6429 11.7334 73.3789 11.904 74.0082 12.2454C74.6482 12.5867 75.1282 13.0774 75.4482 13.7174L73.9122 14.6134C73.6669 14.2187 73.3576 13.9254 72.9842 13.7334C72.6216 13.5307 72.2216 13.4294 71.7842 13.4294C71.0376 13.4294 70.4189 13.6747 69.9282 14.1654C69.4376 14.6454 69.1922 15.2907 69.1922 16.1014C69.1922 16.912 69.4322 17.5627 69.9122 18.0534C70.4029 18.5334 71.0269 18.7734 71.7842 18.7734C72.2216 18.7734 72.6216 18.6774 72.9842 18.4854C73.3576 18.2827 73.6669 17.984 73.9122 17.5894L75.4482 18.4854C75.1176 19.1254 74.6322 19.6214 73.9922 19.9734C73.3629 20.3147 72.6322 20.4854 71.8002 20.4854ZM83.899 13.5254H80.907V20.3734H78.907V13.5254H75.899V11.8294H83.899V13.5254ZM90.1817 9.17335C91.1524 9.17335 91.9951 9.33335 92.7097 9.65335C93.4351 9.97335 93.9897 10.432 94.3737 11.0294C94.7577 11.6267 94.9497 12.336 94.9497 13.1574C94.9497 13.968 94.7577 14.6774 94.3737 15.2854C93.9897 15.8827 93.4351 16.3414 92.7097 16.6614C91.9951 16.9814 91.1524 17.1414 90.1817 17.1414H87.6537V20.3734H85.5737V9.17335H90.1817ZM90.0857 15.3814C90.9924 15.3814 91.6804 15.1894 92.1497 14.8054C92.6191 14.4214 92.8537 13.872 92.8537 13.1574C92.8537 12.4427 92.6191 11.8934 92.1497 11.5094C91.6804 11.1254 90.9924 10.9334 90.0857 10.9334H87.6537V15.3814H90.0857ZM100.47 20.4854C99.6062 20.4854 98.8276 20.2987 98.1342 19.9254C97.4409 19.552 96.8969 19.0347 96.5022 18.3734C96.1182 17.7014 95.9262 16.944 95.9262 16.1014C95.9262 15.2587 96.1182 14.5067 96.5022 13.8454C96.8969 13.184 97.4409 12.6667 98.1342 12.2934C98.8276 11.92 99.6062 11.7334 100.47 11.7334C101.345 11.7334 102.129 11.92 102.822 12.2934C103.516 12.6667 104.054 13.184 104.438 13.8454C104.833 14.5067 105.03 15.2587 105.03 16.1014C105.03 16.944 104.833 17.7014 104.438 18.3734C104.054 19.0347 103.516 19.552 102.822 19.9254C102.129 20.2987 101.345 20.4854 100.47 20.4854ZM100.47 18.7734C101.206 18.7734 101.814 18.528 102.294 18.0374C102.774 17.5467 103.014 16.9014 103.014 16.1014C103.014 15.3014 102.774 14.656 102.294 14.1654C101.814 13.6747 101.206 13.4294 100.47 13.4294C99.7342 13.4294 99.1262 13.6747 98.6462 14.1654C98.1769 14.656 97.9422 15.3014 97.9422 16.1014C97.9422 16.9014 98.1769 17.5467 98.6462 18.0374C99.1262 18.528 99.7342 18.7734 100.47 18.7734ZM110.894 20.4854C110.009 20.4854 109.214 20.2987 108.51 19.9254C107.806 19.552 107.257 19.0347 106.862 18.3734C106.467 17.7014 106.27 16.944 106.27 16.1014C106.27 15.2587 106.467 14.5067 106.862 13.8454C107.257 13.184 107.801 12.6667 108.494 12.2934C109.198 11.92 109.998 11.7334 110.894 11.7334C111.737 11.7334 112.473 11.904 113.102 12.2454C113.742 12.5867 114.222 13.0774 114.542 13.7174L113.006 14.6134C112.761 14.2187 112.451 13.9254 112.078 13.7334C111.715 13.5307 111.315 13.4294 110.878 13.4294C110.131 13.4294 109.513 13.6747 109.022 14.1654C108.531 14.6454 108.286 15.2907 108.286 16.1014C108.286 16.912 108.526 17.5627 109.006 18.0534C109.497 18.5334 110.121 18.7734 110.878 18.7734C111.315 18.7734 111.715 18.6774 112.078 18.4854C112.451 18.2827 112.761 17.984 113.006 17.5894L114.542 18.4854C114.211 19.1254 113.726 19.6214 113.086 19.9734C112.457 20.3147 111.726 20.4854 110.894 20.4854Z" fill="black"/>
<path d="M17.4875 8.51086L11.3625 2.38586C11.2854 2.30046 11.1908 2.23277 11.085 2.18746C10.9793 2.14214 10.865 2.12028 10.75 2.12336H2C1.53587 2.12336 1.09075 2.30774 0.762563 2.63593C0.434374 2.96412 0.25 3.40924 0.25 3.87336V24.8734C0.25 25.3375 0.434374 25.7826 0.762563 26.1108C1.09075 26.439 1.53587 26.6234 2 26.6234H16C16.4641 26.6234 16.9092 26.439 17.2374 26.1108C17.5656 25.7826 17.75 25.3375 17.75 24.8734V9.12336C17.7531 9.00837 17.7312 8.89407 17.6859 8.78833C17.6406 8.6826 17.5729 8.58794 17.4875 8.51086ZM10.75 4.22336L15.65 9.12336H10.75V4.22336ZM16 24.8734H2V3.87336H9V9.12336C9 9.58749 9.18437 10.0326 9.51256 10.3608C9.84075 10.689 10.2859 10.8734 10.75 10.8734H16V24.8734Z" fill="#E75500"/>
<path d="M7.25 19.7809L4.98375 17.5146L3.75 18.7484L7.25 22.2484L14.25 15.2484L13.0163 14.0146L7.25 19.7809Z" fill="#E75500"/>
</svg>
