<svg width="30" height="6" viewBox="0 0 30 6" fill="none" xmlns="http://www.w3.org/2000/svg">
<path d="M27.0172 5.48829L16.593 5.48829L11.9477 5.48829L2.98585 5.48829C2.36985 5.48829 1.77908 5.24359 1.3435 4.80801C0.907917 4.37243 0.663214 3.78166 0.663214 3.16566C0.663214 2.54966 0.907917 1.95889 1.3435 1.52331C1.77908 1.08773 2.36985 0.843024 2.98585 0.843024L11.9477 0.843025L16.593 0.843025L27.0172 0.843017C27.6332 0.843018 28.224 1.08772 28.6596 1.5233C29.0951 1.95888 29.3398 2.54965 29.3398 3.16565C29.3398 3.78165 29.0951 4.37242 28.6596 4.808C28.224 5.24358 27.6332 5.48829 27.0172 5.48829Z" fill="white"/>
</svg>
