<svg width="16" height="16" viewBox="0 0 16 16" fill="none" xmlns="http://www.w3.org/2000/svg">
<path d="M15.0235 14.5878L11.09 10.6244C12.0187 9.51598 12.483 8.23779 12.483 6.78985C12.483 5.70139 12.2159 4.69781 11.6817 3.77911C11.1474 2.86042 10.4184 2.13395 9.49475 1.5997C8.57106 1.06546 7.56748 0.79834 6.48402 0.79834C5.40055 0.79834 4.39947 1.06546 3.48077 1.5997C2.56208 2.13395 1.83561 2.86042 1.30136 3.77911C0.767121 4.69781 0.5 5.70139 0.5 6.78985C0.5 7.8783 0.767121 8.88188 1.30136 9.80058C1.83561 10.7193 2.56208 11.4457 3.48077 11.98C4.39947 12.5142 5.40305 12.7814 6.49151 12.7814C7.9794 12.7814 9.28754 12.292 10.4159 11.3134L14.3345 15.2619C14.4343 15.3617 14.5492 15.4117 14.679 15.4117C14.8088 15.4117 14.9211 15.3642 15.016 15.2694C15.1109 15.1745 15.1583 15.0597 15.1583 14.9249C15.1583 14.7901 15.1134 14.6777 15.0235 14.5878ZM6.49151 11.8377C5.57281 11.8377 4.72651 11.6105 3.95261 11.1562C3.1787 10.7018 2.56707 10.0877 2.11771 9.31377C1.66834 8.53987 1.44366 7.69856 1.44366 6.78985C1.44366 5.88114 1.66834 5.03983 2.11771 4.26592C2.56707 3.49202 3.1787 2.87789 3.95261 2.42354C4.72651 1.96918 5.57031 1.742 6.48402 1.742C7.39772 1.742 8.24153 1.96918 9.01543 2.42354C9.78933 2.87789 10.401 3.49202 10.8503 4.26592C11.2997 5.03983 11.5244 5.88114 11.5244 6.78985C11.5244 7.1793 11.4794 7.56375 11.3896 7.94321C11.2997 8.32267 11.1724 8.67717 11.0076 9.00671C10.8428 9.33624 10.6456 9.6483 10.4159 9.94288C10.1863 10.2375 9.92664 10.4996 9.63705 10.7293C9.34746 10.9589 9.0379 11.1562 8.70837 11.3209C8.37883 11.4857 8.02433 11.613 7.64487 11.7029C7.26541 11.7928 6.88096 11.8377 6.49151 11.8377Z" fill="#E75500"/>
</svg>
