<svg width="19" height="19" viewBox="0 0 19 19" fill="none" xmlns="http://www.w3.org/2000/svg">
<path d="M18.0336 16.2544L11.6697 9.89048L18.0336 3.52652C18.3149 3.24522 18.473 2.86369 18.473 2.46586C18.473 2.06804 18.3149 1.68651 18.0336 1.4052C17.7523 1.1239 17.3708 0.965864 16.973 0.965864C16.5751 0.965863 16.1936 1.1239 15.9123 1.4052L9.54834 7.76916L3.18438 1.4052C2.90307 1.1239 2.52154 0.965863 2.12372 0.965864C1.72589 0.965864 1.34436 1.1239 1.06306 1.4052C0.781754 1.68651 0.623719 2.06804 0.62372 2.46586C0.623719 2.86369 0.781754 3.24522 1.06306 3.52652L7.42702 9.89048L1.06306 16.2544C0.781754 16.5358 0.623719 16.9173 0.623719 17.3151C0.623718 17.7129 0.781754 18.0945 1.06306 18.3758C1.34436 18.6571 1.72589 18.8151 2.12372 18.8151C2.52154 18.8151 2.90307 18.6571 3.18438 18.3758L9.54834 12.0118L15.9123 18.3758C16.1936 18.6571 16.5751 18.8151 16.973 18.8151C17.3708 18.8151 17.7523 18.6571 18.0336 18.3758C18.3149 18.0945 18.473 17.7129 18.473 17.3151C18.473 16.9173 18.3149 16.5358 18.0336 16.2544Z" fill="#E75500"/>
</svg>
