<svg width="16" height="15" viewBox="0 0 16 15" fill="none" xmlns="http://www.w3.org/2000/svg">
<path d="M15.1944 14.1254L11.2609 10.162C12.1896 9.05358 12.6539 7.77539 12.6539 6.32745C12.6539 5.23899 12.3868 4.23541 11.8525 3.31671C11.3183 2.39801 10.5893 1.67154 9.66565 1.1373C8.74196 0.603059 7.73838 0.335938 6.65492 0.335938C5.57145 0.335938 4.57037 0.603059 3.65167 1.1373C2.73298 1.67154 2.00651 2.39801 1.47226 3.31671C0.93802 4.23541 0.670898 5.23899 0.670898 6.32745C0.670898 7.4159 0.93802 8.41948 1.47226 9.33818C2.00651 10.2569 2.73298 10.9833 3.65167 11.5176C4.57037 12.0518 5.57395 12.319 6.66241 12.319C8.1503 12.319 9.45844 11.8296 10.5868 10.851L14.5054 14.7995C14.6052 14.8993 14.7201 14.9493 14.8499 14.9493C14.9797 14.9493 15.092 14.9018 15.1869 14.807C15.2818 14.7121 15.3292 14.5973 15.3292 14.4625C15.3292 14.3277 15.2843 14.2153 15.1944 14.1254ZM6.66241 11.3753C5.74371 11.3753 4.89741 11.1481 4.1235 10.6938C3.3496 10.2394 2.73797 9.62527 2.28861 8.85137C1.83924 8.07746 1.61456 7.23616 1.61456 6.32745C1.61456 5.41873 1.83924 4.57743 2.28861 3.80352C2.73797 3.02962 3.3496 2.41549 4.1235 1.96113C4.89741 1.50678 5.74121 1.2796 6.65492 1.2796C7.56862 1.2796 8.41243 1.50678 9.18633 1.96113C9.96023 2.41549 10.5719 3.02962 11.0212 3.80352C11.4706 4.57743 11.6953 5.41873 11.6953 6.32745C11.6953 6.71689 11.6503 7.10135 11.5605 7.48081C11.4706 7.86027 11.3433 8.21477 11.1785 8.5443C11.0137 8.87384 10.8165 9.18589 10.5868 9.48048C10.3572 9.77506 10.0975 10.0372 9.80795 10.2669C9.51836 10.4965 9.2088 10.6938 8.87926 10.8585C8.54973 11.0233 8.19523 11.1506 7.81577 11.2405C7.43631 11.3304 7.05185 11.3753 6.66241 11.3753Z" fill="white"/>
</svg>
