<svg width="13" height="10" viewBox="0 0 13 10" fill="none" xmlns="http://www.w3.org/2000/svg">
<path fill-rule="evenodd" clip-rule="evenodd" d="M10.1254 0.68647C10.3311 0.482526 10.6088 0.367747 10.8985 0.366948C11.1882 0.366148 11.4666 0.479393 11.6735 0.682199C11.8803 0.885005 11.9991 1.16108 12.004 1.45073C12.0089 1.74038 11.8997 2.02034 11.6998 2.23008L5.8312 9.56588C5.73034 9.67451 5.6086 9.7617 5.47328 9.82221C5.33795 9.88273 5.19181 9.91533 5.0436 9.91808C4.89538 9.92082 4.74813 9.89365 4.61066 9.83819C4.47318 9.78272 4.34831 9.70011 4.24349 9.59528L0.355076 5.70539C0.246749 5.60445 0.159863 5.48273 0.0996003 5.34748C0.039338 5.21223 0.00693403 5.06623 0.00432198 4.91819C0.00170993 4.77014 0.0289434 4.62309 0.084397 4.4858C0.139851 4.34851 0.222389 4.2238 0.327088 4.1191C0.431786 4.0144 0.5565 3.93186 0.69379 3.87641C0.83108 3.82095 0.978133 3.79372 1.12618 3.79633C1.27422 3.79894 1.42022 3.83135 1.55547 3.89161C1.69072 3.95187 1.81244 4.03876 1.91338 4.14709L4.99177 7.22401L10.0974 0.718813C10.1065 0.707425 10.1164 0.696622 10.1268 0.68647H10.1254Z" fill="white"/>
</svg>
