<svg width="40" height="39" viewBox="0 0 40 39" fill="none" xmlns="http://www.w3.org/2000/svg">
<path d="M18.7771 19.7437V9.48813C18.7771 9.1275 18.9011 8.82321 19.149 8.57528C19.3969 8.32734 19.7012 8.20337 20.0619 8.20337C20.4225 8.20337 20.7268 8.32734 20.9747 8.57528C21.2227 8.82321 21.3466 9.1275 21.3466 9.48813V19.3605L25.8404 23.8093C26.0207 24.1399 26.062 24.4742 25.9643 24.8123C25.8667 25.1504 25.6676 25.4096 25.367 25.5899C25.2017 25.6801 24.9914 25.7252 24.7359 25.7252C24.225 25.7252 23.8494 25.5148 23.6089 25.0941L19.0476 20.5552C18.8673 20.3298 18.7771 20.0593 18.7771 19.7437Z" fill="#E75500"/>
<circle cx="20" cy="19.5808" r="18.0029" stroke="#E75500" stroke-width="2"/>
</svg>
