<svg width="38" height="45" viewBox="0 0 38 45" fill="none" xmlns="http://www.w3.org/2000/svg">
<path fill-rule="evenodd" clip-rule="evenodd" d="M3.90648 21.9595C4.50888 19.7037 5.6065 17.6114 7.11904 15.8358C8.63159 14.0602 10.5208 12.646 12.6485 11.6968C14.7762 10.7476 17.0887 10.2873 19.4166 10.3496C21.7445 10.4119 24.0292 10.9953 26.1034 12.057C26.2864 12.1504 26.486 12.2067 26.6907 12.2228C26.8955 12.2389 27.1014 12.2143 27.2967 12.1506C27.492 12.0869 27.6728 11.9852 27.8289 11.8514C27.985 11.7176 28.1133 11.5542 28.2065 11.3707C28.2996 11.1871 28.3558 10.987 28.3719 10.7817C28.3879 10.5764 28.3634 10.3699 28.2999 10.174C28.2363 9.97821 28.1349 9.79684 28.0015 9.6403C27.868 9.48376 27.7051 9.35511 27.5221 9.26169C23.575 7.24202 19.0421 6.68947 14.7275 7.70203C10.4128 8.71459 6.59517 11.2268 3.95171 14.7932C1.30824 18.3595 0.00979427 22.7494 0.28665 27.1843C0.563506 31.6192 2.39777 35.8125 5.46413 39.0204C8.53048 42.2283 12.6307 44.2435 17.0376 44.7085C21.4446 45.1736 25.8733 44.0585 29.5384 41.561C33.2035 39.0635 35.8681 35.345 37.0596 31.065C38.251 26.785 37.8923 22.2202 36.0471 18.1802C35.8743 17.8021 35.5588 17.5082 35.1699 17.3634C34.7811 17.2185 34.3508 17.2345 33.9737 17.4078C33.5966 17.581 33.3035 17.8974 33.1591 18.2874C33.0146 18.6773 33.0306 19.1088 33.2034 19.487C34.2481 21.7729 34.7288 24.2773 34.605 26.7888C34.4811 29.3002 33.7563 31.7449 32.4918 33.9163C31.2273 36.0876 29.4602 37.922 27.3399 39.2642C25.2195 40.6065 22.8081 41.4174 20.3094 41.6282C17.8107 41.8391 15.2981 41.4438 12.9838 40.4758C10.6695 39.5078 8.62159 37.9954 7.01296 36.0665C5.40433 34.1376 4.28228 31.8488 3.74159 29.3934C3.20091 26.9381 3.25746 24.3883 3.90648 21.9595Z" fill="#E75500"/>
<path fill-rule="evenodd" clip-rule="evenodd" d="M19.4598 1.40234C19.7528 1.1086 20.1501 0.943588 20.5645 0.943588C20.9788 0.943588 21.3761 1.1086 21.6692 1.40234L29.4817 9.23661C29.6272 9.38216 29.7426 9.55506 29.8214 9.74542C29.9002 9.93578 29.9407 10.1398 29.9407 10.3459C29.9407 10.552 29.9002 10.7561 29.8214 10.9465C29.7426 11.1368 29.6272 11.3097 29.4817 11.4553L21.6692 19.2895C21.5239 19.435 21.3515 19.5504 21.1617 19.629C20.972 19.7077 20.7687 19.7481 20.5634 19.7479C20.3581 19.7478 20.1548 19.7071 19.9652 19.6282C19.7755 19.5493 19.6033 19.4337 19.4582 19.288C19.1652 18.9938 19.0008 18.5949 19.0011 18.1791C19.0012 17.9732 19.0418 17.7694 19.1205 17.5792C19.1992 17.3891 19.3145 17.2164 19.4598 17.0709L26.166 10.3459L19.4598 3.62101C19.3143 3.47546 19.1988 3.30256 19.12 3.1122C19.0413 2.92184 19.0007 2.71777 19.0007 2.51167C19.0007 2.30558 19.0413 2.10151 19.12 1.91115C19.1988 1.72079 19.3143 1.54789 19.4598 1.40234Z" fill="#E75500"/>
</svg>
